<?xml version="1.0" encoding="UTF-8" standalone="no"?>
<!DOCTYPE svg PUBLIC "-//W3C//DTD SVG 1.1//EN" "http://www.w3.org/Graphics/SVG/1.1/DTD/svg11.dtd">
<svg width="100%" height="100%" viewBox="0 0 258 212" version="1.1" xmlns="http://www.w3.org/2000/svg" xmlns:xlink="http://www.w3.org/1999/xlink" xml:space="preserve" xmlns:serif="http://www.serif.com/" style="fill-rule:evenodd;clip-rule:evenodd;stroke-linejoin:round;stroke-miterlimit:2;">
    <g transform="matrix(1,0,0,1,-1211,-275)">
        <g transform="matrix(1,0,0,1,1084.2,0)">
            <g transform="matrix(1,0,0,1,-1084.19,184.017)">
                <path d="M1304.82,152.988C1304.6,165.633 1308.64,179.577 1321.55,183.022C1330.56,185.426 1337.18,189.406 1340.6,191.713C1346.98,187.499 1353.63,184.557 1360.5,182.677C1367.66,179.551 1372.75,174.286 1374.93,166.017L1414.6,165.991C1414.24,169.04 1413.83,172.306 1412.79,175.956C1411.85,179.215 1412.69,179.851 1415.38,180.19C1447.54,184.237 1465.07,199.862 1468.59,227.826L1428.97,227.826C1426.1,217.228 1420.09,208.321 1394.65,208.555C1370.73,208.776 1364.31,215.908 1360.5,227.826L1320.71,227.826C1317.74,213.386 1305.09,207.991 1286.1,208.509C1260.9,207.536 1250.73,218.632 1250.7,240.828C1250.65,272.226 1271.13,272.272 1286.1,273.46C1302.92,273.215 1316.54,269.83 1320.68,253.829L1360.5,253.829C1364.27,269.356 1377.52,273.146 1394.69,273.421C1414.16,273.733 1425.59,267.535 1428.98,253.829L1468.69,253.829C1466.04,287.771 1441.01,303.743 1394.65,302.583C1374.63,303.07 1356.42,299.876 1341.2,290.628C1330.16,299.062 1304.85,303.872 1286.1,302.583C1256.01,300.515 1212.6,301.928 1211.7,240.828C1211.09,199.002 1233.71,184.884 1264.91,180.268C1268.2,179.781 1269.37,178.707 1268.27,174.423C1266.45,167.278 1265.94,160.133 1265.8,152.988C1265.35,111.82 1288.58,90.56 1340.2,91.232C1383.4,90.821 1410.55,104.919 1414.51,139.991L1374.91,139.912C1370.82,123.925 1357.08,120.212 1340.2,120.488C1315.39,120.893 1305.23,128.617 1304.82,152.988Z" style="fill:white;"/>
            </g>
        </g>
    </g>
</svg>
