<?xml version="1.0" encoding="UTF-8" ?>
<!DOCTYPE svg PUBLIC "-//W3C//DTD SVG 1.1//EN" "http://www.w3.org/Graphics/SVG/1.1/DTD/svg11.dtd">
<svg width="370pt" height="100pt" viewBox="0 0 370 100" version="1.1" xmlns="http://www.w3.org/2000/svg">
<g id="#4c5cc4fe">
<path fill="#4c5cc4" opacity="1.00" d=" M 318.44 19.39 C 324.14 15.32 330.81 11.43 338.07 12.06 C 341.30 12.16 344.55 14.04 345.26 17.38 C 337.46 10.43 325.39 13.74 319.31 21.32 C 310.92 31.43 307.21 44.36 301.70 56.09 C 305.55 52.80 309.35 47.21 315.07 48.18 C 317.41 55.05 309.02 60.35 309.69 67.26 C 313.13 66.64 314.51 63.23 316.76 61.02 C 315.87 64.79 312.82 67.62 309.63 69.57 C 308.21 70.50 305.77 70.12 305.79 68.08 C 305.54 61.62 311.97 56.96 311.13 50.43 C 303.36 53.26 299.67 61.46 296.55 68.50 C 295.13 69.03 293.71 69.55 292.29 70.05 C 292.86 68.45 293.51 66.89 294.25 65.36 C 293.92 64.59 293.58 63.83 293.22 63.07 C 290.87 66.50 287.39 70.37 282.83 70.04 C 280.51 69.55 280.83 66.57 281.24 64.84 C 282.52 60.18 284.82 55.89 286.57 51.41 C 285.65 51.33 283.81 51.18 282.89 51.11 C 287.36 49.90 289.94 45.88 293.79 43.83 C 292.97 45.82 292.06 47.77 291.23 49.76 C 293.89 49.67 296.53 49.28 299.19 49.05 C 296.92 51.56 293.41 51.60 290.28 51.70 C 288.57 56.98 284.29 61.89 284.88 67.60 C 288.90 68.68 290.77 63.72 293.27 61.49 C 293.82 62.29 294.37 63.09 294.93 63.89 C 297.52 56.41 301.18 49.36 304.15 42.03 C 307.68 33.86 310.90 24.78 318.44 19.39 Z" />
<path fill="#4c5cc4" opacity="1.00" d=" M 195.65 28.55 C 201.91 18.14 219.07 11.54 228.49 21.68 C 239.37 19.02 250.48 21.92 261.09 24.40 C 270.05 21.82 280.05 19.02 289.12 22.70 C 292.08 24.17 289.97 27.81 287.43 28.24 C 277.57 31.32 266.97 29.58 257.09 27.50 C 248.13 31.98 242.22 40.48 237.43 48.97 C 238.35 49.12 240.19 49.44 241.11 49.60 C 242.77 45.94 247.74 42.37 251.40 45.47 C 252.61 50.29 246.59 50.87 243.29 51.08 C 241.51 54.57 239.17 58.39 234.83 58.75 C 237.30 56.40 239.44 53.75 240.87 50.63 C 239.54 50.40 238.20 50.18 236.87 49.97 C 235.36 52.45 233.88 54.95 232.27 57.36 C 224.45 69.55 208.82 76.37 194.60 73.30 C 190.49 72.47 186.13 69.56 185.88 65.01 C 185.52 61.53 189.57 58.05 192.75 60.31 C 195.14 62.87 191.91 66.28 189.01 65.96 C 188.39 64.87 187.75 63.80 187.09 62.74 C 186.38 70.64 195.60 73.59 201.97 72.88 C 215.73 72.10 224.49 59.74 231.19 49.13 C 227.61 48.62 225.92 51.72 223.22 52.98 C 224.38 49.08 228.76 48.40 232.23 48.15 C 238.61 39.96 245.59 31.77 255.18 27.26 C 246.81 24.84 238.22 23.40 229.53 22.82 C 229.04 23.48 228.57 24.14 228.10 24.80 L 227.27 23.34 C 219.99 23.65 214.32 28.60 208.38 32.02 C 211.28 34.89 215.82 32.94 219.47 33.49 C 219.56 34.70 219.65 35.92 219.74 37.13 C 218.13 35.17 216.05 33.95 213.41 34.60 C 213.39 36.26 213.38 37.92 213.40 39.58 C 215.54 39.96 216.96 39.24 217.68 37.42 C 218.32 39.18 218.19 41.04 217.73 42.82 C 217.23 40.66 215.25 40.53 213.38 40.57 C 213.38 42.41 213.48 44.24 213.70 46.07 C 216.38 46.62 219.02 46.10 220.45 43.57 C 220.47 44.16 220.52 45.35 220.55 45.94 C 225.78 42.25 229.26 34.61 228.74 27.89 C 228.25 26.42 229.26 25.19 229.94 24.03 C 232.62 33.08 228.54 42.67 221.84 48.84 C 217.36 53.58 210.30 56.50 203.88 54.30 C 200.87 53.30 199.70 50.11 199.29 47.25 C 196.10 47.01 192.67 47.95 189.69 46.50 L 191.83 46.23 C 191.99 42.41 192.01 38.59 191.82 34.77 C 191.36 34.50 190.44 33.94 189.97 33.66 C 192.36 33.48 194.75 33.49 197.15 33.61 C 196.53 34.06 195.91 34.51 195.29 34.94 C 195.29 38.57 195.19 42.19 195.40 45.82 C 196.69 45.99 198.00 46.15 199.30 46.30 C 202.07 33.41 214.44 24.82 226.64 21.87 C 222.62 16.26 214.68 17.19 208.93 19.12 C 203.54 20.75 199.91 25.20 195.65 28.55 M 264.80 25.23 C 272.91 26.39 282.80 30.57 290.00 24.95 C 286.94 21.76 282.04 22.40 278.01 22.12 C 273.59 22.49 268.25 22.36 264.80 25.23 M 206.93 33.67 C 204.67 37.21 201.81 40.44 200.66 44.60 L 202.82 43.65 C 202.28 45.19 202.28 47.41 200.24 47.73 C 200.83 50.43 202.44 53.18 205.38 53.76 C 211.13 54.97 216.46 51.18 220.17 47.19 C 216.02 47.09 211.75 47.81 207.70 46.65 C 212.48 45.58 209.49 38.25 210.15 34.41 C 208.85 35.53 207.93 34.22 206.93 33.67 M 243.69 50.10 C 246.12 49.88 251.83 49.38 250.02 45.56 C 246.90 43.80 244.54 47.64 243.69 50.10 Z" />
<path fill="#4c5cc4" opacity="1.00" d=" M 24.75 29.98 C 29.41 30.00 34.57 28.81 38.86 31.14 C 41.85 33.28 40.19 37.52 37.40 38.97 C 38.84 42.22 40.39 45.80 44.04 47.09 C 41.28 47.82 37.68 47.58 36.08 44.86 C 34.49 43.05 34.27 39.65 31.39 39.42 C 31.12 42.27 30.38 46.23 34.07 47.18 C 31.06 46.93 27.50 48.19 24.84 46.49 C 28.39 46.90 26.98 42.99 27.38 41.01 C 26.85 37.23 29.20 31.92 24.75 29.98 M 31.47 30.77 C 31.10 33.33 31.14 35.91 31.34 38.48 C 37.44 40.12 37.42 29.78 31.47 30.77 Z" />
<path fill="#4c5cc4" opacity="1.00" d=" M 49.00 33.60 C 52.81 33.43 56.62 33.51 60.43 33.51 C 60.51 34.75 60.58 36.00 60.62 37.26 C 59.24 34.89 57.22 34.23 54.44 34.54 C 54.44 36.22 54.45 37.89 54.47 39.57 C 56.40 39.89 58.00 39.17 59.10 37.57 C 59.05 39.38 58.96 41.19 58.75 42.99 C 58.48 42.44 57.93 41.35 57.66 40.81 C 56.85 40.77 55.24 40.70 54.44 40.66 C 54.45 42.46 54.50 44.26 54.63 46.05 C 57.44 46.80 59.87 45.56 61.90 43.73 C 61.59 44.92 61.26 46.10 60.92 47.27 C 56.83 46.93 52.52 48.02 48.60 46.53 C 49.18 46.45 50.32 46.29 50.90 46.20 C 51.24 42.42 51.26 38.60 50.89 34.82 C 50.25 34.42 49.62 34.01 49.00 33.60 Z" />
<path fill="#4c5cc4" opacity="1.00" d=" M 88.56 37.00 C 88.80 32.69 94.17 32.92 97.24 33.70 C 97.32 34.81 97.39 35.92 97.45 37.04 C 96.00 35.39 92.45 32.39 91.35 35.93 C 92.27 39.35 97.77 39.12 98.14 42.95 C 98.66 48.92 86.16 49.59 87.97 42.84 C 89.55 44.66 92.04 48.28 94.58 45.68 C 96.38 41.14 88.01 41.49 88.56 37.00 Z" />
<path fill="#4c5cc4" opacity="1.00" d=" M 110.58 33.71 C 115.31 31.89 122.13 35.32 121.06 41.01 C 121.02 48.79 108.28 49.85 105.73 43.10 C 104.00 39.28 106.81 34.87 110.58 33.71 M 110.48 35.44 C 107.66 38.87 108.56 46.51 113.94 46.57 C 121.02 45.42 117.25 30.24 110.48 35.44 Z" />
<path fill="#4c5cc4" opacity="1.00" d=" M 127.92 33.63 C 129.73 33.53 131.54 33.50 133.35 33.50 C 135.48 36.73 138.14 39.54 140.89 42.25 C 140.93 39.18 142.02 35.34 138.83 33.46 C 140.60 33.48 142.36 33.49 144.13 33.47 C 143.60 34.16 143.07 34.85 142.53 35.53 C 142.34 39.62 142.60 43.72 142.23 47.80 C 137.92 45.12 135.66 40.19 131.80 36.94 C 132.39 40.11 129.95 45.84 134.23 46.88 C 132.25 47.65 130.09 47.21 128.04 47.03 C 132.09 44.77 129.86 38.75 130.06 34.84 C 129.34 34.45 128.62 34.04 127.92 33.63 Z" />
<path fill="#4c5cc4" opacity="1.00" d=" M 171.13 33.49 C 174.43 33.63 177.83 33.10 181.04 34.03 C 183.52 34.96 183.13 39.17 180.45 39.55 C 182.92 40.41 184.97 43.51 182.69 45.70 C 179.23 48.11 174.68 47.29 170.73 46.95 C 171.19 46.62 172.11 45.95 172.57 45.62 C 172.22 41.60 173.81 36.94 171.13 33.49 M 176.38 34.06 C 175.79 35.89 175.77 37.83 175.84 39.74 C 180.22 40.32 180.35 34.51 176.38 34.06 M 175.89 40.44 C 176.07 42.50 174.71 46.55 178.03 46.53 C 181.86 45.18 179.96 39.15 175.89 40.44 Z" />
<path fill="#4c5cc4" opacity="1.00" d=" M 67.01 46.98 C 72.11 43.95 70.56 36.15 75.40 33.07 C 77.92 37.66 78.21 43.40 81.95 47.29 C 80.01 47.28 78.06 47.27 76.12 47.29 C 76.28 46.86 76.60 45.99 76.76 45.56 C 76.43 44.58 76.11 43.60 75.79 42.62 C 74.46 42.60 73.13 42.58 71.81 42.57 C 71.37 43.48 70.93 44.39 70.49 45.30 C 71.01 45.92 71.53 46.55 72.04 47.18 C 70.36 47.29 68.67 47.33 67.01 46.98 M 73.36 37.50 C 72.07 38.62 72.20 42.56 74.58 41.14 C 75.25 40.14 74.68 37.32 73.36 37.50 Z" />
<path fill="#4c5cc4" opacity="1.00" d=" M 150.04 47.29 C 154.49 43.59 153.35 36.04 158.31 33.21 C 160.81 37.65 160.58 44.10 165.15 47.02 C 162.75 47.24 160.09 47.82 157.86 46.67 L 159.68 46.35 C 159.27 45.08 158.86 43.81 158.44 42.54 C 157.04 42.57 155.65 42.61 154.26 42.66 C 154.00 43.56 153.48 45.35 153.22 46.25 L 155.14 46.54 C 153.59 47.46 151.77 47.29 150.04 47.29 M 156.23 37.74 C 155.27 38.72 154.99 39.84 155.39 41.10 C 155.92 41.08 156.98 41.04 157.51 41.02 C 157.82 39.99 157.53 37.80 156.23 37.74 Z" />
<path fill="#4c5cc4" opacity="1.00" d=" M 279.06 43.31 C 276.97 37.58 285.53 33.67 289.68 36.73 C 284.73 35.33 281.47 39.77 279.06 43.31 Z" />
<path fill="#4c5cc4" opacity="1.00" d=" M 244.12 64.92 C 245.33 56.81 252.00 50.07 259.87 48.11 C 262.71 47.94 265.62 48.96 268.23 47.20 C 264.56 53.63 260.59 60.28 259.62 67.74 C 263.83 67.52 264.36 62.50 267.71 61.14 C 265.78 65.61 261.78 70.51 256.32 69.51 C 255.91 67.21 256.57 64.96 257.08 62.74 C 254.25 65.63 251.36 69.25 247.02 69.64 C 244.49 69.96 243.79 66.81 244.12 64.92 M 248.30 66.80 C 253.58 67.19 255.50 61.56 257.86 57.97 C 260.17 56.25 261.34 53.67 262.22 51.02 C 253.26 47.86 247.63 59.45 248.30 66.80 Z" />
<path fill="#4c5cc4" opacity="1.00" d=" M 267.96 54.94 C 269.33 51.07 274.54 47.41 278.65 48.36 C 279.88 55.41 271.79 60.36 272.61 67.62 C 275.99 66.53 277.76 63.39 279.92 60.84 C 279.09 66.06 273.82 69.73 268.78 70.12 C 266.85 62.93 274.65 57.70 274.29 50.58 C 271.66 51.15 269.90 53.26 267.96 54.94 Z" />
</g>
</svg>
