<?xml version="1.0" encoding="UTF-8" ?>
<!DOCTYPE svg PUBLIC "-//W3C//DTD SVG 1.1//EN" "http://www.w3.org/Graphics/SVG/1.1/DTD/svg11.dtd">
<svg width="384pt" height="100pt" viewBox="0 0 384 100" version="1.1" xmlns="http://www.w3.org/2000/svg">
<g id="#2b2b2bff">
<path fill="#2b2b2b" opacity="1.00" d=" M 1.22 1.32 C 23.64 1.38 46.06 1.34 68.47 1.35 C 68.39 9.28 68.47 17.21 68.43 25.15 C 66.22 25.14 64.02 25.09 61.83 24.88 C 61.94 19.19 61.85 13.50 61.90 7.82 C 43.84 7.82 25.78 7.84 7.72 7.80 C 7.70 26.06 7.75 44.32 7.70 62.58 C 15.55 62.57 23.40 62.59 31.26 62.57 C 31.16 52.23 31.33 41.90 31.16 31.56 C 53.59 31.52 76.01 31.56 98.44 31.54 C 98.31 54.36 98.53 77.18 98.33 100.00 L 31.59 100.00 C 30.72 91.93 31.53 83.76 31.17 75.65 C 33.36 75.65 35.55 75.65 37.74 75.65 C 37.63 81.37 37.70 87.08 37.67 92.79 C 55.74 92.75 73.81 92.80 91.88 92.77 C 91.79 74.57 91.81 56.37 91.87 38.17 C 84.05 38.15 76.24 38.19 68.42 38.14 C 68.45 48.50 68.43 58.85 68.45 69.21 C 46.05 69.21 23.65 69.13 1.25 69.26 C 1.26 46.61 1.32 23.97 1.22 1.32 M 37.68 38.14 C 37.67 46.29 37.71 54.44 37.65 62.59 C 45.80 62.49 53.95 62.75 62.08 62.46 C 61.66 54.37 61.94 46.27 61.93 38.18 C 53.85 38.13 45.76 38.21 37.68 38.14 Z" />
<path fill="#2b2b2b" opacity="1.00" d=" M 129.27 1.38 C 138.59 2.34 149.87 -1.51 157.55 5.43 C 164.18 12.17 159.00 24.32 149.72 24.89 C 153.94 30.21 157.90 35.74 161.97 41.19 C 160.02 40.76 157.19 42.12 155.82 40.18 C 152.08 35.39 148.63 30.38 144.91 25.57 C 141.18 25.60 137.46 25.59 133.73 25.58 C 133.75 30.77 133.77 35.96 133.73 41.14 C 132.29 41.16 130.85 41.17 129.42 41.19 C 129.20 27.92 129.48 14.65 129.27 1.38 M 133.72 5.48 C 133.76 10.85 133.76 16.22 133.73 21.59 C 139.60 21.12 145.86 22.67 151.46 20.42 C 157.05 18.27 157.63 9.22 152.01 6.78 C 146.26 4.30 139.78 5.98 133.72 5.48 Z" />
<path fill="#2b2b2b" opacity="1.00" d=" M 194.59 1.51 C 195.95 0.31 198.95 0.24 199.53 2.33 C 205.34 15.27 211.10 28.25 216.97 41.17 C 215.36 41.16 213.75 41.15 212.14 41.15 C 210.49 37.62 209.09 33.98 207.33 30.51 C 200.30 30.61 193.27 30.61 186.24 30.51 C 184.34 33.98 183.13 37.77 181.18 41.21 C 179.70 41.18 178.23 41.17 176.75 41.16 C 182.78 27.98 188.58 14.70 194.59 1.51 M 187.66 26.41 C 193.71 26.66 199.77 26.48 205.82 26.51 C 202.70 19.86 199.75 13.12 196.93 6.33 C 193.56 12.89 191.14 19.90 187.66 26.41 Z" />
<path fill="#2b2b2b" opacity="1.00" d=" M 225.15 1.37 C 235.51 1.40 245.87 1.22 256.22 1.46 C 256.19 2.47 256.14 4.49 256.11 5.50 C 251.68 5.49 247.25 5.49 242.83 5.48 C 242.85 17.37 242.87 29.26 242.82 41.15 C 241.34 41.15 239.86 41.16 238.39 41.16 C 238.36 29.27 238.33 17.38 238.41 5.49 C 233.96 5.45 229.50 5.56 225.05 5.43 C 225.08 4.07 225.11 2.72 225.15 1.37 Z" />
<path fill="#2b2b2b" opacity="1.00" d=" M 272.72 1.34 C 274.24 1.34 275.76 1.34 277.29 1.33 C 277.24 33.69 277.25 66.05 277.28 98.40 C 275.76 98.40 274.24 98.40 272.72 98.40 C 272.75 66.05 272.75 33.69 272.72 1.34 Z" />
<path fill="#2b2b2b" opacity="1.00" d=" M 307.54 1.79 C 316.00 -1.78 326.53 2.00 331.31 9.71 C 336.96 18.47 335.01 31.38 326.57 37.68 C 317.96 44.55 303.71 42.45 297.84 33.00 C 290.54 22.57 295.19 5.91 307.54 1.79 M 309.41 5.58 C 299.49 8.77 296.13 22.10 301.63 30.43 C 305.60 37.10 315.00 39.66 321.74 35.73 C 330.31 31.23 332.33 18.82 326.80 11.22 C 323.11 5.76 315.60 3.27 309.41 5.58 Z" />
<path fill="#2b2b2b" opacity="1.00" d=" M 135.31 63.30 C 143.12 55.54 156.75 56.48 164.32 64.12 C 163.31 65.31 162.23 66.46 161.17 67.62 C 156.10 61.96 146.92 60.14 140.53 64.61 C 130.98 70.89 131.38 87.02 141.25 92.78 C 147.80 96.88 156.51 94.61 161.55 89.15 C 162.55 90.11 163.56 91.08 164.57 92.05 C 158.04 99.38 146.31 101.52 138.02 95.94 C 127.12 89.13 125.91 71.88 135.31 63.30 Z" />
<path fill="#2b2b2b" opacity="1.00" d=" M 298.28 60.19 C 305.18 56.24 314.25 58.04 320.24 62.92 C 319.33 64.08 318.43 65.23 317.53 66.39 C 312.95 62.59 305.92 60.42 300.49 63.65 C 296.96 65.74 296.77 71.50 300.45 73.55 C 306.22 76.94 313.96 76.09 318.91 81.08 C 323.44 85.95 321.26 94.59 315.32 97.28 C 307.44 100.91 297.95 98.21 291.65 92.65 C 292.61 91.52 293.57 90.38 294.54 89.25 C 299.39 93.98 307.24 96.78 313.58 93.46 C 317.52 91.49 318.00 85.12 313.97 82.99 C 308.48 79.97 301.54 80.49 296.53 76.45 C 291.43 72.28 292.60 63.31 298.28 60.19 Z" />
<path fill="#2b2b2b" opacity="1.00" d=" M 377.45 58.61 C 378.96 58.61 380.47 58.60 381.99 58.59 C 381.91 71.86 381.89 85.13 382.00 98.40 C 380.48 98.40 378.97 98.40 377.47 98.41 C 377.50 85.14 377.53 71.88 377.45 58.61 Z" />
<path fill="#2b2b2b" opacity="1.00" d=" M 177.76 58.62 C 179.28 58.61 180.80 58.61 182.33 58.60 C 182.26 64.50 182.35 70.39 182.26 76.29 C 189.81 76.28 197.36 76.29 204.91 76.28 C 204.81 70.40 204.89 64.51 204.85 58.63 C 206.38 58.62 207.92 58.61 209.46 58.59 C 209.40 71.87 209.41 85.15 209.45 98.43 C 207.92 98.40 206.39 98.38 204.86 98.37 C 204.94 92.43 204.70 86.48 205.02 80.55 C 197.41 80.43 189.80 80.46 182.19 80.54 C 182.42 86.49 182.23 92.45 182.33 98.40 C 180.80 98.39 179.28 98.39 177.76 98.39 C 177.78 85.13 177.79 71.87 177.76 58.62 Z" />
<path fill="#2b2b2b" opacity="1.00" d=" M 226.09 58.65 C 232.38 58.63 238.68 58.53 244.97 58.68 C 251.11 58.82 257.38 63.48 257.32 70.02 C 257.89 76.24 252.54 81.41 246.61 82.09 C 250.66 87.53 254.63 93.04 258.83 98.36 C 256.97 98.41 255.11 98.40 253.26 98.40 C 249.38 93.22 245.60 87.98 241.69 82.82 C 237.99 82.85 234.28 82.84 230.58 82.83 C 230.59 88.03 230.56 93.23 230.62 98.43 C 229.11 98.40 227.60 98.37 226.09 98.36 C 226.24 85.12 226.24 71.88 226.09 58.65 M 230.56 62.75 C 230.62 68.12 230.56 73.50 230.59 78.87 C 236.34 78.39 242.39 79.77 247.94 77.88 C 253.75 75.89 254.57 66.75 248.90 64.09 C 243.14 61.58 236.63 63.25 230.56 62.75 Z" />
<path fill="#2b2b2b" opacity="1.00" d=" M 332.23 58.63 C 342.57 58.59 352.92 58.63 363.26 58.61 C 363.25 60.00 363.24 61.39 363.24 62.77 C 358.79 62.76 354.35 62.75 349.90 62.77 C 350.02 74.63 349.68 86.49 350.08 98.34 C 348.54 98.37 346.99 98.40 345.46 98.44 C 345.52 86.54 345.43 74.64 345.51 62.74 C 341.09 62.77 336.67 62.79 332.25 62.74 C 332.24 61.37 332.23 60.00 332.23 58.63 Z" />
</g>
</svg>
